HIERARCHY
ROOT ROOT
{
	OFFSET 0.000000 56.020000 -5.659234
	CHANNELS 6 Xposition Yposition Zposition Xrotation Yrotation Zrotation 
	JOINT C_spine0001_bind_JNT
	{
		OFFSET 0.000000 1.618999 0.000000
		CHANNELS 3 Xrotation Yrotation Zrotation
		JOINT C_spine0002_bind_JNT
		{
			OFFSET 0.000000 4.942001 0.000001
			CHANNELS 3 Xrotation Yrotation Zrotation
			JOINT C_spine0003_bind_JNT
			{
				OFFSET 0.000000 4.942001 -0.000000
				CHANNELS 3 Xrotation Yrotation Zrotation
				JOINT C_neck0001_bind_JNT
				{
					OFFSET 0.000000 17.026009 -0.000000
					CHANNELS 3 Xrotation Yrotation Zrotation
					JOINT C_neck0002_bind_JNT
					{
						OFFSET 0.000000 3.249985 0.000000
						CHANNELS 3 Xrotation Yrotation Zrotation
						JOINT C_head_bind_JNT
						{
							OFFSET 0.000000 5.278008 0.000000
							CHANNELS 3 Xrotation Yrotation Zrotation
							End Site
							{
								OFFSET 0.000000 0.000000 0.000000
							}
						}
					}
				}
				JOINT L_clavicle_bind_JNT
				{
					OFFSET 4.590000 12.067001 0.834000
					CHANNELS 3 Xrotation Yrotation Zrotation
					JOINT L_armUpper0001_bind_JNT
					{
						OFFSET 7.812635 0.512001 -3.452945
						CHANNELS 3 Xrotation Yrotation Zrotation
						JOINT L_armLower0001_bind_JNT
						{
							OFFSET 15.265892 -6.552116 -0.058157
							CHANNELS 3 Xrotation Yrotation Zrotation
							JOINT L_hand0001_bind_JNT
							{
								OFFSET 14.747667 -6.369995 5.049225
								CHANNELS 3 Xrotation Yrotation Zrotation
								End Site
								{
									OFFSET 0.000000 0.000000 0.000000
								}
							}
						}
					}
				}
				JOINT R_clavicle_bind_JNT
				{
					OFFSET -4.590000 12.067001 0.834000
					CHANNELS 3 Xrotation Yrotation Zrotation
					JOINT R_armUpper0001_bind_JNT
					{
						OFFSET -7.812635 0.512001 -3.452945
						CHANNELS 3 Xrotation Yrotation Zrotation
						JOINT R_armLower0001_bind_JNT
						{
							OFFSET -15.265890 -6.552124 -0.058160
							CHANNELS 3 Xrotation Yrotation Zrotation
							JOINT R_hand0001_bind_JNT
							{
								OFFSET -14.746784 -6.369629 5.048937
								CHANNELS 3 Xrotation Yrotation Zrotation
								End Site
								{
									OFFSET 0.000000 0.000000 0.000000
								}
							}
						}
					}
				}
			}
		}
	}
	JOINT C_pelvis0001_bind_JNT
	{
		OFFSET -0.000000 0.000000 0.000000
		CHANNELS 3 Xrotation Yrotation Zrotation
		JOINT L_legUpper0001_bind_JNT
		{
			OFFSET 6.599999 -6.027000 0.539000
			CHANNELS 3 Xrotation Yrotation Zrotation
			JOINT L_legLower0001_bind_JNT
			{
				OFFSET -0.140713 -19.187443 0.040261
				CHANNELS 3 Xrotation Yrotation Zrotation
				JOINT L_foot0001_bind_JNT
				{
					OFFSET -0.132215 -18.028637 -1.138370
					CHANNELS 3 Xrotation Yrotation Zrotation
					JOINT L_foot0002_bind_JNT
					{
						OFFSET 0.007014 -4.693133 9.886524
						CHANNELS 3 Xrotation Yrotation Zrotation
						End Site
						{
							OFFSET 0.000000 0.000000 0.000000
						}
					}
				}
			}
		}
		JOINT R_legUpper0001_bind_JNT
		{
			OFFSET -6.599999 -6.027000 0.539000
			CHANNELS 3 Xrotation Yrotation Zrotation
			JOINT R_legLower0001_bind_JNT
			{
				OFFSET 0.140710 -19.187164 0.040550
				CHANNELS 3 Xrotation Yrotation Zrotation
				JOINT R_foot0001_bind_JNT
				{
					OFFSET 0.132215 -18.028633 -1.138362
					CHANNELS 3 Xrotation Yrotation Zrotation
					JOINT R_foot0002_bind_JNT
					{
						OFFSET -0.007014 -4.693128 9.886505
						CHANNELS 3 Xrotation Yrotation Zrotation
						End Site
						{
							OFFSET 0.000000 0.000000 0.000000
						}
					}
				}
			}
		}
	}
}
MOTION
Frames: 8
Frame Time: 0.033333
0.000000 49.334217 0.000000 0.046775 -7.977877 -0.036116 -0.428955 8.303273 0.632708 -3.540482 -0.341628 1.068310 3.592253 -0.148974 1.375809 15.423876 -1.746541 -0.064201 0.219473 0.003307 -0.236253 -8.026998 -3.366307 -0.792836 17.655809 2.780386 21.401344 -29.159527 -5.622944 -84.966881 9.694326 10.942811 -8.911779 -4.261476 -17.240467 -23.921667 12.341464 -2.971998 -21.227587 -26.544334 6.403145 79.354660 16.092617 -13.733694 9.127810 -10.241377 15.331964 29.228464 1.329379 8.033277 1.065201 0.775632 -5.166853 -0.530317 3.546163 2.051858 -1.982210 -3.469725 10.367604 0.017541 -2.424723 0.649454 0.665096 1.251587 -1.785294 -0.887479 2.270895 -5.852505 1.345538 -2.615776 -5.990289 1.190181 -1.964466 -0.594543 -0.965205 
0.106442 49.334671 -0.021107 0.005622 -7.216228 -0.009026 -0.220775 7.735996 0.568541 -3.807915 -0.488955 0.871508 3.358950 -0.065795 1.463207 15.662396 -1.682516 -0.255475 0.145636 -0.315052 -0.283867 -7.911728 -3.193171 -0.992254 18.375002 2.567749 21.736835 -29.471584 -5.284049 -85.317818 9.335388 10.714045 -9.252333 -4.260692 -17.376366 -24.131124 12.618830 -3.237438 -21.421227 -26.267601 5.785725 79.798393 17.133484 -13.150661 8.762013 -11.080607 14.597698 30.218435 1.236803 7.500587 0.826442 0.864443 -6.203950 -0.226989 4.023221 2.540561 -2.311338 -3.396168 10.747257 0.385241 -2.674560 1.030383 0.228036 0.812382 -1.718770 -0.798395 3.328577 -6.320796 1.208274 -3.083803 -5.659411 1.472279 -1.783334 -0.590395 -0.702073 
0.171012 49.350391 -0.051906 0.004408 -7.757969 -0.020628 -0.452348 8.246292 0.692280 -3.684860 -0.457795 0.890748 3.511813 -0.027021 1.393752 15.334496 -1.771080 -0.120185 0.248005 -0.233532 -0.301243 -7.940461 -3.256440 -0.784522 18.265142 2.470385 21.830145 -29.381737 -5.144555 -85.172470 9.359895 10.846582 -9.254107 -4.935687 -17.471329 -24.105169 12.569007 -3.369549 -21.465319 -26.510477 5.958526 80.184814 16.632217 -13.453864 8.374279 -11.071851 14.355916 30.338972 1.296677 7.942098 0.846813 0.857599 -6.287109 -0.516877 3.572772 2.807483 -2.282368 -3.372914 10.532320 0.793697 -2.396338 0.822836 0.163309 0.796073 -1.951410 -0.806946 3.406594 -6.328152 1.376268 -3.185371 -5.884516 1.280386 -1.747142 -0.785960 -0.615332 
0.197086 49.374386 -0.079858 0.013022 -7.945440 -0.018249 -0.495246 8.468985 0.735830 -3.582793 -0.475109 0.876325 3.487143 -0.109551 1.388256 15.373604 -1.786871 -0.125134 0.254375 -0.158269 -0.274233 -7.949412 -3.215647 -0.753650 18.315630 2.586494 21.813545 -29.489012 -5.261589 -85.244148 9.232409 10.731163 -9.289692 -4.891026 -17.602617 -24.056480 12.659885 -3.290639 -21.510897 -26.650181 6.008408 80.316063 16.445328 -13.417882 8.249946 -11.220357 14.247172 30.130630 1.303089 8.191449 0.832868 0.848836 -6.516639 -0.449719 3.374651 2.777175 -2.331729 -3.424913 10.510025 0.792640 -2.143832 0.855276 0.235335 0.759995 -1.987116 -0.845423 3.390292 -6.264344 1.400666 -3.127863 -6.255023 1.243171 -1.721485 -0.710457 -0.650876 
0.202382 49.392307 -0.102213 0.010107 -8.127829 -0.013287 -0.521791 8.583214 0.701823 -3.528997 -0.483640 0.910215 3.499852 -0.168055 1.353814 15.413446 -1.697936 -0.130844 0.241783 -0.146998 -0.172844 -7.840684 -3.110429 -0.693341 18.419735 2.734981 21.785286 -29.896641 -5.445162 -85.215996 9.319303 10.689500 -9.279375 -4.950196 -17.440905 -24.082306 12.686184 -3.289802 -21.429440 -26.794296 6.066370 80.459427 16.322828 -13.657702 8.072970 -11.299714 14.523501 30.119852 1.363896 8.312545 0.891135 0.756554 -6.505153 -0.474735 3.359580 2.676892 -2.306912 -3.462217 10.475628 0.731117 -2.124869 0.852780 0.227766 0.648062 -1.995387 -0.941181 3.496366 -6.277362 1.431334 -3.263820 -6.438401 1.193907 -1.643876 -0.747710 -0.677481 
0.207220 49.395142 -0.126537 0.010557 -8.161794 -0.017918 -0.540659 8.488544 0.789006 -3.493777 -0.491318 0.835620 3.491778 -0.171879 1.404763 15.399721 -1.615697 -0.125698 0.252562 -0.225460 -0.237103 -7.736096 -2.969997 -0.724791 18.459372 2.709246 21.707352 -30.055136 -5.491902 -85.163368 9.233680 10.734153 -9.265059 -4.905503 -17.414518 -24.286852 12.649678 -3.333580 -21.429043 -26.856813 6.166500 80.421349 16.317923 -13.761698 8.092726 -11.304317 14.564715 30.195162 1.355954 8.258928 0.864653 0.768618 -6.571927 -0.410933 3.309362 2.717678 -2.241822 -3.414946 10.483098 0.569617 -2.132958 0.895524 0.253957 0.609368 -1.914418 -0.953686 3.568059 -6.257664 1.452052 -3.393854 -6.487720 1.147448 -1.557968 -0.692594 -0.621963 
0.205361 49.429245 -0.146583 0.008170 -8.082653 -0.016017 -0.591308 8.346954 0.770034 -3.464178 -0.500236 0.917023 3.502302 -0.151982 1.430572 15.507422 -1.634223 -0.158426 0.237288 -0.205112 -0.227457 -7.650087 -2.965405 -0.747683 18.442369 2.633277 21.720295 -30.091148 -5.616398 -85.158432 9.131856 10.775017 -9.211576 -4.804078 -17.265215 -24.398449 12.611332 -3.399357 -21.376778 -26.851460 6.274947 80.377953 16.132961 -13.900091 8.016823 -11.386657 14.448397 30.260635 1.350190 8.163161 0.910367 0.741031 -6.588476 -0.405420 3.316322 2.573905 -2.266741 -3.406157 10.663234 0.568043 -2.114039 0.834070 0.190326 0.570512 -1.930566 -1.046193 3.636083 -6.201949 1.443771 -3.451726 -6.570755 1.154498 -1.575364 -0.707288 -0.640629 
0.200046 49.427040 -0.165138 0.011954 -8.152037 -0.018397 -0.641237 8.332439 0.816987 -3.503934 -0.497112 0.928764 3.537299 -0.189035 1.423673 15.518575 -1.545939 -0.163174 0.265328 -0.254863 -0.241358 -7.493231 -2.931051 -0.806330 18.436743 2.673540 21.660084 -30.222305 -5.596696 -85.103340 9.324849 10.822231 -9.214414 -4.812062 -17.265783 -24.522789 12.697983 -3.416368 -21.401747 -27.031982 6.364199 80.336021 15.989491 -14.116329 8.025067 -11.415829 14.528508 30.299379 1.261607 8.125898 0.886959 0.798392 -6.610320 -0.368847 3.369004 2.515925 -2.276458 -3.416883 10.680677 0.568189 -2.106982 0.917204 0.200932 0.600706 -1.834502 -1.034606 3.764634 -6.131670 1.523085 -3.536630 -6.571928 1.051563 -1.503865 -0.726442 -0.563591 
